<svg width="56" height="56" viewBox="0 0 56 56" fill="none" xmlns="http://www.w3.org/2000/svg">
  <path d="M36.5613 22.4387C36.7007 22.5781 36.8114 22.7435 36.8868 22.9256C36.9623 23.1077 37.0012 23.3029 37.0012 23.5C37.0012 23.6971 36.9623 23.8923 36.8868 24.0744C36.8114 24.2565 36.7007 24.4219 36.5613 24.5613L26.0613 35.0613C25.9219 35.2007 25.7565 35.3114 25.5744 35.3868C25.3923 35.4623 25.1971 35.5012 25 35.5012C24.8029 35.5012 24.6077 35.4623 24.4256 35.3868C24.2435 35.3114 24.0781 35.2007 23.9388 35.0613L19.4388 30.5613C19.1573 30.2798 18.9992 29.898 18.9992 29.5C18.9992 29.102 19.1573 28.7202 19.4388 28.4387C19.7202 28.1573 20.102 27.9992 20.5 27.9992C20.8981 27.9992 21.2798 28.1573 21.5613 28.4387L25 31.8794L34.4388 22.4387C34.5781 22.2993 34.7435 22.1886 34.9256 22.1132C35.1077 22.0377 35.3029 21.9988 35.5 21.9988C35.6971 21.9988 35.8923 22.0377 36.0744 22.1132C36.2565 22.1886 36.4219 22.2993 36.5613 22.4387ZM47.5 28C47.5 31.8567 46.3564 35.6269 44.2137 38.8336C42.071 42.0404 39.0255 44.5397 35.4623 46.0156C31.8992 47.4916 27.9784 47.8777 24.1957 47.1253C20.4131 46.3729 16.9386 44.5157 14.2114 41.7886C11.4843 39.0615 9.62711 35.5869 8.8747 31.8043C8.12228 28.0216 8.50845 24.1008 9.98436 20.5377C11.4603 16.9745 13.9596 13.929 17.1664 11.7863C20.3731 9.64366 24.1433 8.5 28 8.5C33.1701 8.50546 38.1268 10.5617 41.7826 14.2174C45.4383 17.8732 47.4945 22.83 47.5 28ZM44.5 28C44.5 24.7366 43.5323 21.5465 41.7193 18.8331C39.9062 16.1197 37.3293 14.0048 34.3143 12.756C31.2993 11.5071 27.9817 11.1804 24.781 11.817C21.5803 12.4537 18.6403 14.0252 16.3327 16.3327C14.0252 18.6403 12.4537 21.5803 11.8171 24.781C11.1804 27.9817 11.5072 31.2993 12.756 34.3143C14.0048 37.3293 16.1197 39.9062 18.8331 41.7192C21.5465 43.5323 24.7366 44.5 28 44.5C32.3746 44.495 36.5685 42.7551 39.6618 39.6618C42.7551 36.5685 44.495 32.3745 44.5 28Z" fill="#34C25C"/>
</svg>
