<svg width="56" height="55" viewBox="0 0 56 55" fill="none" xmlns="http://www.w3.org/2000/svg">
  <path d="M48.902 39.767L32.5051 11.2914C32.0954 10.5937 31.5104 10.0153 30.8083 9.61336C30.1061 9.21144 29.3111 9 28.502 9C27.6929 9 26.8979 9.21144 26.1957 9.61336C25.4936 10.0153 24.9086 10.5937 24.4989 11.2914L8.10201 39.767C7.70777 40.4418 7.5 41.2092 7.5 41.9907C7.5 42.7723 7.70777 43.5397 8.10201 44.2145C8.50651 44.9164 9.09046 45.498 9.79394 45.8996C10.4974 46.3013 11.2951 46.5085 12.1051 46.5001H44.8989C45.7083 46.5079 46.5052 46.3003 47.208 45.8987C47.9107 45.497 48.4941 44.9158 48.8983 44.2145C49.2931 43.5401 49.5015 42.7728 49.5021 41.9913C49.5028 41.2097 49.2957 40.4421 48.902 39.767ZM46.3014 42.7126C46.1584 42.9565 45.9532 43.1579 45.7068 43.2963C45.4603 43.4347 45.1815 43.505 44.8989 43.5001H12.1051C11.8225 43.505 11.5437 43.4347 11.2973 43.2963C11.0508 43.1579 10.8456 42.9565 10.7026 42.7126C10.5732 42.4934 10.5049 42.2435 10.5049 41.9889C10.5049 41.7343 10.5732 41.4843 10.7026 41.2651L27.0995 12.7895C27.2453 12.5468 27.4515 12.346 27.6979 12.2066C27.9443 12.0672 28.2226 11.9939 28.5058 11.9939C28.7889 11.9939 29.0672 12.0672 29.3136 12.2066C29.56 12.346 29.7662 12.5468 29.912 12.7895L46.3089 41.2651C46.4372 41.485 46.5042 41.7353 46.5029 41.9899C46.5016 42.2445 46.432 42.4941 46.3014 42.7126ZM27.002 31.5001V24.0001C27.002 23.6023 27.16 23.2208 27.4414 22.9395C27.7227 22.6582 28.1042 22.5001 28.502 22.5001C28.8998 22.5001 29.2814 22.6582 29.5627 22.9395C29.844 23.2208 30.002 23.6023 30.002 24.0001V31.5001C30.002 31.8979 29.844 32.2795 29.5627 32.5608C29.2814 32.8421 28.8998 33.0001 28.502 33.0001C28.1042 33.0001 27.7227 32.8421 27.4414 32.5608C27.16 32.2795 27.002 31.8979 27.002 31.5001ZM30.752 38.2501C30.752 38.6951 30.6201 39.1301 30.3728 39.5002C30.1256 39.8702 29.7742 40.1586 29.363 40.3288C28.9519 40.4991 28.4995 40.5437 28.0631 40.4569C27.6266 40.3701 27.2257 40.1558 26.911 39.8411C26.5964 39.5264 26.3821 39.1255 26.2952 38.6891C26.2084 38.2526 26.253 37.8002 26.4233 37.3891C26.5936 36.978 26.882 36.6266 27.252 36.3793C27.622 36.1321 28.057 36.0001 28.502 36.0001C29.0987 36.0001 29.671 36.2372 30.093 36.6591C30.515 37.0811 30.752 37.6534 30.752 38.2501Z" fill="#FDD545"/>
</svg>
